# xmcd
# 
# Track frame offsets:
#     182
#     22572
#     35097
#     56562
#     74775
#     88940
#     107367
#     120255
#     130017
#     147735
#     158447
#     184940
#     211162
#     236722
#     271162
# 
# Disc length: 3823
# 
# Revision: 0
# Processed by: cddbd v1.5.2PL0 Copyright (c) Steve Scherf et al.
# Submitted via: fre:ac v1.0.27
# 
DISCID=cd0eed0f
DTITLE=Getz - Gilberto 2 - Carnegie Hall
DYEAR=1993
DGENRE=Jazz
TTITLE0=1
TTITLE1=2
TTITLE2=3
TTITLE3=4
TTITLE4=5
TTITLE5=6
TTITLE6=7
TTITLE7=8
TTITLE8=9
TTITLE9=10
TTITLE10=11
TTITLE11=12
TTITLE12=13
TTITLE13=14
TTITLE14=15
EXTD=
EXTT0=
EXTT1=
EXTT2=
EXTT3=
EXTT4=
EXTT5=
EXTT6=
EXTT7=
EXTT8=
EXTT9=
EXTT10=
EXTT11=
EXTT12=
EXTT13=
EXTT14=
PLAYORDER=
